HIERARCHY
ROOT Hips
{
	OFFSET 0.00000 0.00000 0.00000
	CHANNELS 6 Xposition Yposition Zposition Zrotation Yrotation Xrotation 
	JOINT LHipJoint
	{
		OFFSET 0 0 0
		CHANNELS 3 Zrotation Yrotation Xrotation
		JOINT LeftHip
		{
			OFFSET 1.46561 -1.72757 0.83774
			CHANNELS 3 Zrotation Yrotation Xrotation
			JOINT LeftKnee
			{
				OFFSET 2.48915 -6.83890 0.00000
				CHANNELS 3 Zrotation Yrotation Xrotation
				JOINT LeftAnkle
				{
					OFFSET 2.60555 -7.15868 0.00000
					CHANNELS 3 Zrotation Yrotation Xrotation
					JOINT LeftToe
					{
						OFFSET 0.19248 -0.52884 2.26738
						CHANNELS 3 Zrotation Yrotation Xrotation
						End Site
						{
							OFFSET 0.00000 -0.00000 1.17015
						}
					}
				}
			}
		}
	}
	JOINT RHipJoint
	{
		OFFSET 0 0 0
		CHANNELS 3 Zrotation Yrotation Xrotation
		JOINT RightHip
		{
			OFFSET -1.46918 -1.72757 0.83774
			CHANNELS 3 Zrotation Yrotation Xrotation
			JOINT RightKnee
			{
				OFFSET -2.49034 -6.84216 0.00000
				CHANNELS 3 Zrotation Yrotation Xrotation
				JOINT RightAnkle
				{
					OFFSET -2.65971 -7.30750 0.00000
					CHANNELS 3 Zrotation Yrotation Xrotation
					JOINT RightToe
					{
						OFFSET -0.19227 -0.52827 2.30785
						CHANNELS 3 Zrotation Yrotation Xrotation
						End Site
						{
							OFFSET -0.00000 -0.00000 1.18972
						}
					}
				}
			}
		}
	}
	JOINT lowerback
	{
		OFFSET 0 0 0
		CHANNELS 3 Zrotation Yrotation Xrotation
		JOINT Chest
		{
			OFFSET 0.02432 2.19909 -0.28000
			CHANNELS 3 Zrotation Yrotation Xrotation
			JOINT Chest2
			{
				OFFSET 0.03714 2.21816 -0.15261
				CHANNELS 3 Zrotation Yrotation Xrotation
				JOINT lowerneck
				{
					OFFSET 0 0 0
					CHANNELS 3 Zrotation Yrotation Xrotation
					JOINT Neck
					{
						OFFSET -0.01896 1.56165 0.21681
						CHANNELS 3 Zrotation Yrotation Xrotation
						JOINT Head
						{
							OFFSET 0.02744 1.56009 0.06764
							CHANNELS 3 Zrotation Yrotation Xrotation
							End Site
							{
								OFFSET 0.01212 1.60574 0.00298
							}
						}
					}
				}
				JOINT LeftCollar
				{
					OFFSET 0 0 0
					CHANNELS 3 Zrotation Yrotation Xrotation
					JOINT LeftShoulder
					{
						OFFSET 3.05595 1.48048 -0.60794
CHANNELS 3 Zrotation Xrotation Yrotation
						JOINT LeftElbow
						{
OFFSET 0 -5.206070 -0.000000
CHANNELS 3 Zrotation Xrotation Yrotation
							JOINT LeftWrist
							{
OFFSET 0 -3.399610 0.000000
CHANNELS 3 Zrotation Xrotation Yrotation
								JOINT lhand
								{
									OFFSET 0 0 0
CHANNELS 3 Zrotation Xrotation Yrotation
									JOINT LFingers
									{
OFFSET 0 -0.519690 0.000000
CHANNELS 3 Zrotation Xrotation Yrotation
										End Site
										{
OFFSET 0 -0.418990 0.000000
										}
									}
								}
								JOINT LThumb
								{
OFFSET 0 0.000000 0.000000
CHANNELS 3 Zrotation Xrotation Yrotation
									End Site
									{
OFFSET 0 -0.425390 0.425390
									}
								}
							}
						}
					}
				}
				JOINT RightCollar
				{
					OFFSET 0 0 0
					CHANNELS 3 Zrotation Yrotation Xrotation
					JOINT RightShoulder
					{
						OFFSET -2.99052 1.57608 -0.69102
CHANNELS 3 Zrotation Xrotation Yrotation
						JOINT RightElbow
						{
OFFSET 0 -5.322140 0.000000
CHANNELS 3 Zrotation Xrotation Yrotation
							JOINT RightWrist
							{
OFFSET 0 -3.512080 0.000000
CHANNELS 3 Zrotation Xrotation Yrotation
								JOINT rhand
								{
									OFFSET 0 0 0
CHANNELS 3 Zrotation Xrotation Yrotation
									JOINT RFingers
									{
OFFSET 0 -0.586680 0.000000
CHANNELS 3 Zrotation Xrotation Yrotation
										End Site
										{
OFFSET 0 -0.473000 0.000000
										}
									}
								}
								JOINT RThumb
								{
OFFSET 0 0.000000 0.000000
CHANNELS 3 Zrotation Xrotation Yrotation
									End Site
									{
OFFSET 0 -0.480220 0.480220
									}
								}
							}
						}
					}
				}
			}
		}
	}
}
MOTION
Frames: 4
Frame Time: 0.008333333333333333
0.349068 20.786551 -9.159397 0.162982 4.399818 8.878578 0.000000 0.000000 0.000000 -15.153583 -3.569162 -23.274039 5.429647 13.851855 42.647397 2.497983 9.102267 28.449071 0.189825 2.805917 7.738786 0.000000 0.000000 0.000000 16.798729 1.587928 -18.157934 -4.249776 -12.485136 37.471131 -1.445341 -17.902393 23.308638 -1.953614 -8.768692 25.074503 -2.389209 -1.296217 1.587781 2.327110 -1.774172 3.723381 3.719343 -0.993705 3.091392 -3.146078 -0.153209 -10.465605 0.601102 0.300359 26.153703 0.785207 -0.096767 10.023068 0.000000 0.000000 0.000000 5.823247 -15.224438 -37.751059 13.832181 -22.494288 2.763603 26.292618 -24.443347 6.496455 0.000000 0.000000 0.000000 -7.125000 0.000000 0.000000 -0.336286 22.741181 -0.180072 0.000000 0.000000 0.000000 -6.250897 -8.177084 17.828342 -15.076453 -24.252469 -3.257296 -20.143784 38.925258 23.915271 0.000000 0.000000 0.000000 7.125000 0.000000 0.000000 9.795373 54.995935 -2.421713
0.345823 20.913484 -9.060914 0.183438 4.377455 8.382077 0.000000 0.000000 0.000000 -15.182051 -3.685460 -23.606950 5.544470 13.971827 43.124708 2.414501 8.945038 27.956432 0.192488 2.825377 7.793064 0.000000 0.000000 0.000000 16.707714 1.855741 -18.698446 -4.491909 -12.787093 38.577646 -1.378849 -17.462431 22.749573 -1.927523 -8.713216 24.902350 -2.496091 -1.238047 2.363113 2.307444 -1.708233 3.975372 3.775603 -0.964357 2.914072 -3.155521 -0.192874 -10.542823 0.680530 0.228949 26.218774 0.807036 -0.122167 10.062763 0.000000 0.000000 0.000000 5.809231 -15.278741 -37.919073 13.795674 -22.441847 2.749638 25.932395 -24.549368 6.358688 0.000000 0.000000 0.000000 -7.125000 0.000000 0.000000 -0.596179 22.915951 -0.316799 0.000000 0.000000 0.000000 -6.050873 -8.185234 17.453995 -14.977108 -24.114150 -3.216582 -20.136548 39.224583 23.941305 0.000000 0.000000 0.000000 7.125000 0.000000 0.000000 9.813926 55.020974 -2.432408
0.343199 21.025880 -8.962363 0.196824 4.338716 7.919036 0.000000 0.000000 0.000000 -15.213436 -3.774087 -23.922209 5.587802 14.016642 43.303970 2.308936 8.747600 27.321672 0.179009 2.724518 7.512712 0.000000 0.000000 0.000000 16.624355 2.064005 -19.285465 -4.705193 -13.043273 39.531858 -1.282097 -16.855753 21.929384 -1.855966 -8.558783 24.424920 -2.574514 -1.179308 3.140994 2.282885 -1.642664 4.209065 3.810152 -0.933623 2.716104 -3.138361 -0.219391 -10.621886 0.718568 0.181420 26.298951 0.812618 -0.138787 10.108108 0.000000 0.000000 0.000000 5.762923 -15.317951 -37.919568 13.709158 -22.317411 2.716696 25.611233 -24.356646 6.123848 0.000000 0.000000 0.000000 -7.125000 0.000000 0.000000 -0.825138 23.194618 -0.433219 0.000000 0.000000 0.000000 -5.827865 -8.221849 17.042619 -14.839390 -23.921794 -3.160524 -20.085684 39.550872 23.981345 0.000000 0.000000 0.000000 7.125000 0.000000 0.000000 9.883767 55.051618 -2.457336
0.341103 21.124182 -8.863060 0.195215 4.291209 7.542085 0.000000 0.000000 0.000000 -15.233385 -3.851832 -24.285579 5.566341 13.994512 43.215334 2.195775 8.546243 26.626369 0.158642 2.565257 7.070712 0.000000 0.000000 0.000000 16.553853 2.245401 -19.968894 -4.887243 -13.255191 40.332365 -1.168168 -16.201986 20.954209 -1.761006 -8.348725 23.778806 -2.617241 -1.125843 3.858666 2.257601 -1.583507 4.407828 3.821990 -0.904357 2.515800 -3.102926 -0.233495 -10.695590 0.722951 0.155983 26.391694 0.805800 -0.147368 10.156659 0.000000 0.000000 0.000000 5.683735 -15.317374 -37.760906 13.588475 -22.143275 2.671031 25.350635 -23.943325 5.859643 0.000000 0.000000 0.000000 -7.125000 0.000000 0.000000 -1.010043 23.500897 -0.523370 0.000000 0.000000 0.000000 -5.592108 -8.274071 16.635314 -14.673057 -23.688548 -3.093415 -20.021771 39.875089 24.019499 0.000000 0.000000 0.000000 7.125000 0.000000 0.000000 9.966195 55.077785 -2.484465
